<!DOCTYPE svg PUBLIC "-//W3C//DTD SVG 1.1//EN" "http://www.w3.org/Graphics/SVG/1.1/DTD/svg11.dtd">
<!-- Uploaded to: SVG Repo, www.svgrepo.com, Transformed by: SVG Repo Mixer Tools -->
<svg version="1.1" id="Layer_1" xmlns="http://www.w3.org/2000/svg" xmlns:xlink="http://www.w3.org/1999/xlink" viewBox="0 0 512.002 512.002" xml:space="preserve" width="800px" height="800px" fill="#000000" transform="rotate(45)matrix(1, 0, 0, -1, 0, 0)">
<g id="SVGRepo_bgCarrier" stroke-width="0"/>
<g id="SVGRepo_tracerCarrier" stroke-linecap="round" stroke-linejoin="round"/>
<g id="SVGRepo_iconCarrier"> <path style="fill:#f780ff;" d="M26.416,414.753L14.61,426.559c-19.479,19.479-19.479,51.355,0,70.834l78.704-47.222L26.416,414.753z "/> <path style="fill:#F9DCA7;" d="M77.573,434.429L14.61,497.393c19.479,19.479,51.355,19.479,70.834,0l11.806-11.806L77.573,434.429z"/> <polygon style="fill:#98D9D5;" points="50.027,343.918 26.417,414.751 61.833,450.168 140.537,402.946 "/> <polygon style="fill:#6DA8D6;" points="168.083,461.974 124.796,387.206 61.833,450.168 97.25,485.587 "/> <rect x="355.656" y="25.636" transform="matrix(-0.7071 0.7071 -0.7071 -0.7071 734.3849 -186.1372)" style="fill:#f780ff;" width="100.173" height="66.782"/> <rect x="419.584" y="56.164" transform="matrix(-0.7071 -0.7071 0.7071 -0.7071 698.1457 501.6825)" style="fill:#F9DCA7;" width="66.782" height="100.173"/> <polygon style="fill:#e13336;" points="350.655,43.291 136.601,257.345 195.629,347.854 409.683,102.319 "/> <polygon style="fill:#df6262;" points="468.711,161.347 409.683,102.319 179.889,332.113 254.657,375.401 "/> <rect x="359.53" y="10.547" transform="matrix(-0.7071 -0.7071 0.7071 -0.7071 546.259 497.7935)" style="fill:#f780ff;" width="33.391" height="250.432"/> <polygon style="fill:#df6262;" points="136.601,257.345 50.027,343.918 109.055,402.946 167.852,375.631 195.629,316.373 "/> <rect x="140.117" y="327.961" transform="matrix(-0.7071 -0.7071 0.7071 -0.7071 35.2576 792.9594)" style="fill:#d82c2c;" width="83.477" height="122.434"/> </g>
</svg>