<!DOCTYPE svg PUBLIC "-//W3C//DTD SVG 1.1//EN" "http://www.w3.org/Graphics/SVG/1.1/DTD/svg11.dtd">

<!-- Uploaded to: SVG Repo, www.svgrepo.com, Transformed by: SVG Repo Mixer Tools -->
<svg version="1.1" id="Capa_1" xmlns="http://www.w3.org/2000/svg" xmlns:xlink="http://www.w3.org/1999/xlink" viewBox="-41 -41 492.00 492.00" xml:space="preserve" width="800px" height="800px" fill="#000000" transform="matrix(1, 0, 0, -1, 0, 0)" stroke="#000000">

<g id="SVGRepo_bgCarrier" stroke-width="0"/>

<g id="SVGRepo_tracerCarrier" stroke-linecap="round" stroke-linejoin="round"/>

<g id="SVGRepo_iconCarrier"> <g id="XMLID_923_"> <polygon id="XMLID_930_" style="fill:#565659;" points="235,30 235,0 175,0 175,30 145,30 145,60 205,60 265,60 265,30 "/> <polygon id="XMLID_931_" style="fill:#ffd014;" points="190,410 220,400 220,380 190,380 "/> <rect id="XMLID_932_" x="205" y="60" style="fill:#FF9811;" width="60" height="250"/> <rect id="XMLID_933_" x="145" y="60" style="fill:#ffd014;" width="60" height="250"/> <polygon id="XMLID_934_" style="fill:#565659;" points="145,310 145,330 175,350 175,380 190,380 220,380 235,380 235,350 265,330 265,310 205,310 "/> </g> </g>

</svg>